<svg width="145" height="177" viewBox="0 0 145 177" fill="none" xmlns="http://www.w3.org/2000/svg" xmlns:xlink="http://www.w3.org/1999/xlink">
<g clip-path="url(#clip0_1_2)">
<path d="M72.5 15.0001C112.583 15.0001 145 47.4168 145 87.5001C145 127.583 112.583 160 72.5 160C32.4167 160 0 127.583 0 87.5001C0 47.4168 32.4167 15.0001 72.5 15.0001Z" fill="url(#paint0_linear_1_2)"/>
<path d="M124.238 65.526C119.53 47.6713 107.575 32.8943 91.5097 24.3316C89.5113 23.3601 83.2198 21.0567 79.2227 20.3209C71.3298 18.867 61.6375 20.1407 53.3449 23.9712C42.0558 29.1415 32.8661 38.6315 27.973 50.4182C27.1735 52.2173 22.879 62.0645 22.0795 65.526C20.3807 72.8837 22.3791 81.027 27.4734 86.856C30.5201 90.3174 35.3162 93.606 40.512 95.8042C44.6089 97.452 51.5002 99.8566 54.4468 100.741C61.4393 102.87 69.1316 102.413 76.1241 99.4984C89.6083 94.0261 100.997 81.3804 105.796 66.827C106.396 65.0278 108.394 59.2996 108.794 57.9985C110.992 51.4925 109.993 44.2009 106.196 38.3714C104.097 35.138 100.8 32.2649 97.0033 30.3804C92.1002 28.0381 84.4079 26.6853 79.5226 27.27C72.2285 28.115 65.236 31.8767 60.3429 37.5857C58.8441 39.2843 53.6483 45.4704 52.4489 47.31C49.552 51.844 50.1517 57.5823 53.6483 61.4128C55.4475 63.5015 58.1448 65.2001 61.0418 66.1716C63.4393 66.9875 68.3323 68.0673 70.1316 68.4276C73.6282 69.1634 77.2256 68.6091 80.3223 66.7609C86.2158 63.2996 89.2124 56.1281 88.013 49.034C87.8132 47.7329 87.2135 44.9272 87.0136 44.1795" fill="#0038A8"/>
<path d="M124.238 65.526C119.53 47.6713 107.575 32.8943 91.5097 24.3316C89.5113 23.3601 83.2198 21.0567 79.2227 20.3209C71.3298 18.867 61.6375 20.1407 53.3449 23.9712C42.0558 29.1415 32.8661 38.6315 27.973 50.4182C27.1735 52.2173 22.879 62.0645 22.0795 65.526L55.6461 74.4009C55.6461 74.4009 62.1388 68.2074 72.1287 67.9872C82.1186 67.7669 88.013 74.4009 88.013 74.4009L124.238 65.526Z" fill="#D52B1E"/>
<path d="M22.0795 65.526C20.3807 72.8837 22.3791 81.027 27.4734 86.856C30.5201 90.3174 35.3162 93.606 40.512 95.8042C44.6089 97.452 51.5002 99.8566 54.4468 100.741C61.4393 102.87 69.1316 102.413 76.1241 99.4984C89.6083 94.0261 100.997 81.3804 105.796 66.827C106.396 65.0278 108.394 59.2996 108.794 57.9985L88.013 74.4009C88.013 74.4009 82.1186 67.7669 72.1287 67.9872C62.1388 68.2074 55.6461 74.4009 55.6461 74.4009L22.0795 65.526Z" fill="white"/>
<g filter="url(#filter0_d_1_2)">
<path d="M72.4999 60.9922C72.4999 58.7831 74.283 56.9999 76.4921 56.9999C78.7012 56.9999 80.4842 58.7831 80.4842 60.9922C80.4842 63.2013 78.7012 64.9844 76.4921 64.9844C74.283 64.9844 72.4999 63.2013 72.4999 60.9922Z" fill="white"/>
</g>
<g filter="url(#filter1_d_1_2)">
<path d="M72.5 70C72.5 67.7909 74.283 66 76.4921 66C78.7012 66 80.4843 67.7909 80.4843 70C80.4843 72.2091 78.7012 74 76.4921 74C74.283 74 72.5 72.2091 72.5 70Z" fill="white"/>
</g>
<circle cx="72.5" cy="70" r="5" fill="#F9CC1E"/>
<path d="M71.5331 71.5312L69.626 69.624C69.2355 69.2335 69.2355 68.5995 69.626 68.209L71.5331 66.3018C71.9236 65.9113 72.5576 65.9113 72.9481 66.3018L74.8553 68.209C75.2458 68.5995 75.2458 69.2335 74.8553 69.624L72.9481 71.5312C72.5576 71.9217 71.9236 71.9217 71.5331 71.5312Z" fill="#0038A8"/>
<path d="M72.1934 68.1719L71.5331 67.5116C71.1426 67.1211 71.1426 66.4871 71.5331 66.0966L72.1934 65.4364C72.5839 65.0459 73.2179 65.0459 73.6084 65.4364L74.2686 66.0966C74.6591 66.4871 74.6591 67.1211 74.2686 67.5116L73.6084 68.1719C73.2179 68.5624 72.5839 68.5624 72.1934 68.1719Z" fill="#D52B1E"/>
<path d="M71.5331 71.5312L69.626 69.624C69.2355 69.2335 69.2355 68.5995 69.626 68.209L71.5331 66.3018C71.9236 65.9113 72.5576 65.9113 72.9481 66.3018L74.8553 68.209C75.2458 68.5995 75.2458 69.2335 74.8553 69.624L72.9481 71.5312C72.5576 71.9217 71.9236 71.9217 71.5331 71.5312Z" stroke="#0038A8" stroke-width="0.5"/>
<path d="M72.1934 68.1719L71.5331 67.5116C71.1426 67.1211 71.1426 66.4871 71.5331 66.0966L72.1934 65.4364C72.5839 65.0459 73.2179 65.0459 73.6084 65.4364L74.2686 66.0966C74.6591 66.4871 74.6591 67.1211 74.2686 67.5116L73.6084 68.1719C73.2179 68.5624 72.5839 68.5624 72.1934 68.1719Z" stroke="#D52B1E" stroke-width="0.5"/>
<text fill="#00246B" xml:space="preserve" style="white-space: pre" font-family="Inter" font-size="24" font-weight="900" letter-spacing="0.05em"><tspan x="30" y="130">LIVING</tspan></text>
<text fill="#00246B" xml:space="preserve" style="white-space: pre" font-family="Inter" font-size="24" font-weight="900" letter-spacing="0.05em"><tspan x="4" y="160">PARAGUAY</tspan></text>
</g>
<defs>
<filter id="filter0_d_1_2" x="68.5" y="56" width="15.9844" height="15.9844" filterUnits="userSpaceOnUse" color-interpolation-filters="sRGB">
<feFlood flood-opacity="0" result="BackgroundImageFix"/>
<feColorMatrix in="SourceAlpha" type="matrix" values="0 0 0 0 0 0 0 0 0 0 0 0 0 0 0 0 0 0 127 0" result="hardAlpha"/>
<feOffset dy="3"/>
<feGaussianBlur stdDeviation="2"/>
<feComposite in2="hardAlpha" operator="out"/>
<feColorMatrix type="matrix" values="0 0 0 0 0 0 0 0 0 0 0 0 0 0 0 0 0 0 0.25 0"/>
<feBlend mode="normal" in2="BackgroundImageFix" result="effect1_dropShadow_1_2"/>
<feBlend mode="normal" in="SourceGraphic" in2="effect1_dropShadow_1_2" result="shape"/>
</filter>
<filter id="filter1_d_1_2" x="68.5" y="65" width="15.9844" height="16" filterUnits="userSpaceOnUse" color-interpolation-filters="sRGB">
<feFlood flood-opacity="0" result="BackgroundImageFix"/>
<feColorMatrix in="SourceAlpha" type="matrix" values="0 0 0 0 0 0 0 0 0 0 0 0 0 0 0 0 0 0 127 0" result="hardAlpha"/>
<feOffset dy="3"/>
<feGaussianBlur stdDeviation="2"/>
<feComposite in2="hardAlpha" operator="out"/>
<feColorMatrix type="matrix" values="0 0 0 0 0 0 0 0 0 0 0 0 0 0 0 0 0 0 0.25 0"/>
<feBlend mode="normal" in2="BackgroundImageFix" result="effect1_dropShadow_1_2"/>
<feBlend mode="normal" in="SourceGraphic" in2="effect1_dropShadow_1_2" result="shape"/>
</filter>
<linearGradient id="paint0_linear_1_2" x1="72.5" y1="15.0001" x2="72.5" y2="160" gradientUnits="userSpaceOnUse">
<stop stop-color="#E0E0E0"/>
<stop offset="1" stop-color="#C4C4C4"/>
</linearGradient>
<clipPath id="clip0_1_2">
<rect width="145" height="177" fill="white"/>
</clipPath>
</defs>
</svg>
